<svg width="195" height="39" viewBox="0 0 195 39" fill="none" xmlns="http://www.w3.org/2000/svg">
<path d="M191.82 27.64C191.32 28.14 190.72 28.39 190.02 28.39C189.32 28.39 188.72 28.14 188.22 27.64C187.72 27.14 187.47 26.54 187.47 25.84C187.47 25.14 187.72 24.54 188.22 24.04C188.72 23.54 189.32 23.29 190.02 23.29C190.72 23.29 191.32 23.54 191.82 24.04C192.32 24.54 192.57 25.14 192.57 25.84C192.57 26.54 192.32 27.14 191.82 27.64Z" fill="#FE6078"/>
<path d="M22.7421 35.9218L22.4334 36.2306C21.9162 36.7512 21.2964 37.1585 20.6133 37.4265C19.6414 37.812 18.5778 37.9045 17.554 37.6926C16.5301 37.4807 15.5906 36.9737 14.8515 36.2341L1.57145 22.9541C1.07326 22.4561 0.678047 21.8649 0.408411 21.2142C0.138777 20.5635 0 19.866 0 19.1616C0 18.4573 0.138777 17.7598 0.408411 17.1091C0.678047 16.4584 1.07326 15.8671 1.57145 15.3692L14.8515 2.08915C15.3491 1.59108 15.9399 1.19602 16.5903 0.926571C17.2407 0.657124 17.9378 0.518575 18.6418 0.51886C19.3458 0.519145 20.0428 0.658253 20.693 0.928224C21.3431 1.1982 21.9337 1.59373 22.4308 2.0922L22.7396 2.40097L14.0682 11.0754V27.2478L22.7421 35.9218Z" fill="url(#paint0_linear)"/>
<g style="mix-blend-mode:multiply" opacity="0.2">
<g style="mix-blend-mode:multiply" opacity="0.2">
<path d="M22.7421 35.9218L22.4333 36.2305C21.9162 36.7512 21.2964 37.1585 20.6133 37.4264L11.2287 28.0413V10.8592L21.0151 1.07275C21.5403 1.33208 22.0194 1.67576 22.4333 2.09011L22.7421 2.39888L14.0681 11.0754V27.2478L22.7421 35.9218Z" fill="black"/>
</g>
</g>
<path d="M22.7421 2.39896L14.0676 11.0735V27.2494L22.7441 35.9259L39.5066 19.1635L22.7421 2.39896Z" fill="url(#paint1_linear)"/>
<path d="M44.7959 22.0705L29.7522 37.1141C29.1803 37.6858 28.4525 38.0763 27.66 38.2369C26.8674 38.3975 26.0451 38.321 25.2957 38.017C25.2318 37.9956 25.1697 37.969 25.11 37.9377C24.6732 37.7337 24.2754 37.455 23.9345 37.1141L14.0661 27.2458V11.0754L23.9345 1.20706C24.3164 0.824867 24.7698 0.52168 25.269 0.314823C25.7681 0.107966 26.3031 0.00149536 26.8433 0.00149536C27.3837 0.00149536 27.9186 0.107966 28.4178 0.314823C28.9169 0.52168 29.3704 0.824867 29.7522 1.20706L44.7959 16.2502C45.1784 16.6322 45.4819 17.0858 45.6889 17.5851C45.8959 18.0845 46.0025 18.6197 46.0025 19.1603C46.0025 19.7009 45.8959 20.2362 45.6889 20.7355C45.4819 21.2349 45.1784 21.6885 44.7959 22.0705Z" fill="url(#paint2_linear)"/>
<g style="mix-blend-mode:screen" opacity="0.3">
<g style="mix-blend-mode:screen" opacity="0.3">
<path d="M43.468 20.7424L28.4253 35.786C28.2169 35.9942 27.9693 36.1588 27.6968 36.2705C27.4242 36.3822 27.1323 36.4386 26.8378 36.4366V1.88668C27.1324 1.88374 27.4246 1.93978 27.6973 2.05152C27.9699 2.16325 28.2174 2.32841 28.4253 2.53728L43.4689 17.5809C43.8874 18.0006 44.1223 18.5692 44.1221 19.1618C44.1219 19.7545 43.8867 20.3229 43.468 20.7424Z" fill="white"/>
</g>
</g>
<path d="M63.621 28.3633C62.4101 28.3633 61.2656 28.1406 60.1875 27.6953C59.1171 27.2422 58.1992 26.6289 57.4335 25.8555C56.6679 25.082 56.0625 24.1562 55.6171 23.0781C55.1718 21.9922 54.9492 20.8398 54.9492 19.6211C54.9492 18.3867 55.1718 17.2266 55.6171 16.1406C56.0625 15.0547 56.6679 14.125 57.4335 13.3516C58.1992 12.5781 59.1171 11.9688 60.1875 11.5234C61.2656 11.0703 62.4101 10.8438 63.621 10.8438C65.6601 10.8438 67.4257 11.4609 68.9179 12.6953C70.4179 13.9297 71.3632 15.543 71.7539 17.5352H68.1093C67.7578 16.5352 67.1835 15.75 66.3867 15.1797C65.5976 14.6016 64.6757 14.3125 63.621 14.3125C62.1992 14.3125 61.0117 14.8203 60.0585 15.8359C59.1054 16.8438 58.6289 18.1055 58.6289 19.6211C58.6289 21.1289 59.1054 22.3867 60.0585 23.3945C61.0117 24.3945 62.1992 24.8945 63.621 24.8945C64.7226 24.8945 65.6757 24.5859 66.4804 23.9688C67.2851 23.3438 67.8398 22.4961 68.1445 21.4258H71.8125C71.4296 23.5039 70.4882 25.1797 68.9882 26.4531C67.4882 27.7266 65.6992 28.3633 63.621 28.3633ZM79.3954 28.3633C78.0751 28.3633 76.8798 28.0664 75.8095 27.4727C74.7392 26.8789 73.8993 26.0586 73.29 25.0117C72.6884 23.9648 72.3876 22.8008 72.3876 21.5195C72.3876 20.2227 72.6884 19.0547 73.29 18.0156C73.8993 16.9688 74.7392 16.1523 75.8095 15.5664C76.8798 14.9727 78.0751 14.6758 79.3954 14.6758C80.7079 14.6758 81.8993 14.9727 82.9696 15.5664C84.04 16.1523 84.8798 16.9688 85.4892 18.0156C86.0985 19.0625 86.4032 20.2305 86.4032 21.5195C86.4032 22.8008 86.0985 23.9648 85.4892 25.0117C84.8798 26.0586 84.04 26.8789 82.9696 27.4727C81.8993 28.0664 80.7079 28.3633 79.3954 28.3633ZM76.911 24.0859C77.5595 24.7422 78.3876 25.0703 79.3954 25.0703C80.4032 25.0703 81.2314 24.7422 81.8798 24.0859C82.5282 23.4219 82.8525 22.5664 82.8525 21.5195C82.8525 20.4727 82.5282 19.6211 81.8798 18.9648C81.2314 18.3008 80.4032 17.9688 79.3954 17.9688C78.3876 17.9688 77.5595 18.3008 76.911 18.9648C76.2626 19.6211 75.9384 20.4727 75.9384 21.5195C75.9384 22.5664 76.2626 23.4219 76.911 24.0859ZM98.5331 15.0156H101.158V27.9766H98.4042L98.0995 26.8164C96.9198 27.8477 95.5214 28.3633 93.9042 28.3633C92.6229 28.3633 91.4628 28.0664 90.4237 27.4727C89.3846 26.8789 88.5721 26.0586 87.9862 25.0117C87.4003 23.957 87.1073 22.7852 87.1073 21.4961C87.1073 20.2148 87.4003 19.0547 87.9862 18.0156C88.5721 16.9688 89.3846 16.1523 90.4237 15.5664C91.4628 14.9727 92.6229 14.6758 93.9042 14.6758C95.5526 14.6758 96.9706 15.2031 98.1581 16.2578L98.5331 15.0156ZM91.6542 24.0391C92.326 24.7109 93.1698 25.0469 94.1854 25.0469C95.201 25.0469 96.0409 24.7109 96.705 24.0391C97.3768 23.3672 97.7128 22.5195 97.7128 21.4961C97.7128 20.4727 97.3768 19.625 96.705 18.9531C96.0409 18.2812 95.201 17.9453 94.1854 17.9453C93.1698 17.9453 92.326 18.2852 91.6542 18.9648C90.9901 19.6367 90.6581 20.4805 90.6581 21.4961C90.6581 22.5117 90.9901 23.3594 91.6542 24.0391ZM109.597 28.3633C108.636 28.3633 107.729 28.1875 106.878 27.8359C106.026 27.4766 105.296 26.9922 104.686 26.3828C104.077 25.7734 103.597 25.043 103.245 24.1914C102.893 23.3398 102.718 22.4375 102.718 21.4844C102.718 20.5312 102.893 19.6328 103.245 18.7891C103.597 17.9453 104.077 17.2227 104.686 16.6211C105.296 16.0195 106.026 15.5469 106.878 15.2031C107.737 14.8516 108.651 14.6758 109.62 14.6758C111.292 14.6758 112.725 15.1641 113.921 16.1406C115.124 17.1094 115.886 18.3945 116.206 19.9961H112.725C112.444 19.3555 112.026 18.8594 111.472 18.5078C110.917 18.1484 110.292 17.9688 109.597 17.9688C108.651 17.9688 107.858 18.3086 107.218 18.9883C106.585 19.6602 106.268 20.4961 106.268 21.4961C106.268 22.4961 106.589 23.3438 107.229 24.0391C107.87 24.7266 108.659 25.0703 109.597 25.0703C110.307 25.0703 110.932 24.8828 111.472 24.5078C112.011 24.1328 112.429 23.5977 112.725 22.9023H116.253C115.948 24.5352 115.182 25.8555 113.956 26.8633C112.737 27.8633 111.284 28.3633 109.597 28.3633ZM125.031 14.7344C126.492 14.7344 127.648 15.2188 128.5 16.1875C129.359 17.1562 129.789 18.4688 129.789 20.125V28H126.285V20.7109C126.285 19.7266 126.101 18.9961 125.734 18.5195C125.375 18.043 124.804 17.8047 124.023 17.8047C123.14 17.8047 122.433 18.1094 121.902 18.7188C121.379 19.3203 121.117 20.1445 121.117 21.1914V28H117.613V10.3633H121.117V16.2461C122.172 15.2383 123.476 14.7344 125.031 14.7344Z" fill="#404040"/>
<path d="M138.614 11.1953C139.833 11.1953 140.969 11.4062 142.024 11.8281C143.087 12.25 143.989 12.832 144.731 13.5742C145.481 14.3086 146.067 15.1953 146.489 16.2344C146.919 17.2734 147.134 18.3906 147.134 19.5859C147.134 20.7891 146.919 21.9141 146.489 22.9609C146.059 24 145.469 24.8906 144.719 25.6328C143.977 26.3672 143.075 26.9453 142.012 27.3672C140.958 27.7891 139.825 28 138.614 28H132.262V11.1953H138.614ZM138.532 24.625C139.969 24.625 141.141 24.1562 142.048 23.2188C142.962 22.2734 143.419 21.0625 143.419 19.5859C143.419 18.1094 142.962 16.9062 142.048 15.9766C141.141 15.0391 139.969 14.5703 138.532 14.5703H135.895V24.625H138.532ZM161.431 21.4727C161.431 21.8242 161.408 22.168 161.361 22.5039H151.552C151.701 23.3867 152.052 24.0664 152.607 24.543C153.17 25.0117 153.877 25.2461 154.728 25.2461C155.33 25.2461 155.869 25.1133 156.345 24.8477C156.83 24.582 157.205 24.2148 157.47 23.7461H161.15C160.681 25.1602 159.869 26.2852 158.713 27.1211C157.556 27.9492 156.228 28.3633 154.728 28.3633C153.47 28.3633 152.326 28.0664 151.295 27.4727C150.271 26.8711 149.467 26.0469 148.881 25C148.295 23.9531 148.002 22.793 148.002 21.5195C148.002 20.2383 148.291 19.0742 148.869 18.0273C149.455 16.9805 150.259 16.1602 151.283 15.5664C152.314 14.9727 153.463 14.6758 154.728 14.6758C156.025 14.6758 157.189 14.9844 158.22 15.6016C159.252 16.2109 160.045 17.0312 160.599 18.0625C161.154 19.0938 161.431 20.2305 161.431 21.4727ZM154.728 17.6641C153.955 17.6641 153.299 17.8789 152.759 18.3086C152.22 18.7383 151.849 19.3398 151.646 20.1133H157.927C157.685 19.3242 157.287 18.7188 156.732 18.2969C156.185 17.875 155.517 17.6641 154.728 17.6641ZM167.561 28.3633C165.936 28.3633 164.624 27.9414 163.624 27.0977C162.632 26.2461 162.132 25.125 162.124 23.7344H165.534C165.542 24.2891 165.741 24.7148 166.132 25.0117C166.53 25.3086 167.053 25.457 167.702 25.457C168.217 25.457 168.651 25.3438 169.003 25.1172C169.362 24.8906 169.542 24.5703 169.542 24.1562C169.542 23.9453 169.479 23.7617 169.354 23.6055C169.237 23.4492 169.049 23.3203 168.792 23.2188C168.534 23.1094 168.28 23.0273 168.03 22.9727C167.78 22.9102 167.452 22.8438 167.046 22.7734C166.678 22.7109 166.37 22.6562 166.12 22.6094C165.87 22.5547 165.565 22.4766 165.206 22.375C164.854 22.2734 164.557 22.1641 164.315 22.0469C164.073 21.9219 163.815 21.7578 163.542 21.5547C163.276 21.3516 163.061 21.1289 162.897 20.8867C162.741 20.6367 162.608 20.3359 162.499 19.9844C162.397 19.6328 162.346 19.2461 162.346 18.8242C162.346 17.5977 162.827 16.6016 163.788 15.8359C164.749 15.0625 166.007 14.6758 167.561 14.6758C169.124 14.6758 170.378 15.0742 171.323 15.8711C172.268 16.6602 172.745 17.7031 172.753 19H169.424C169.417 18.4922 169.241 18.1094 168.897 17.8516C168.561 17.5938 168.085 17.4648 167.467 17.4648C166.928 17.4648 166.503 17.5781 166.19 17.8047C165.885 18.0312 165.733 18.332 165.733 18.707C165.733 18.8477 165.757 18.9766 165.803 19.0938C165.858 19.2031 165.948 19.3008 166.073 19.3867C166.206 19.4648 166.327 19.5352 166.436 19.5977C166.553 19.6523 166.725 19.7109 166.952 19.7734C167.186 19.8281 167.374 19.8711 167.514 19.9023C167.663 19.9258 167.885 19.9648 168.182 20.0195C169.44 20.2461 170.346 20.4805 170.901 20.7227C172.299 21.3477 172.999 22.4414 172.999 24.0039C172.999 25.3242 172.503 26.3828 171.51 27.1797C170.518 27.9688 169.202 28.3633 167.561 28.3633ZM186.828 28H182.586L178.437 21.8008V28H174.933V10.3633H178.437V20.793L182.328 15.0391H186.359L181.976 21.2148L186.828 28Z" fill="#FE6078"/>
<circle cx="27.5" cy="19.5" r="10.5" fill="white"/>
<path d="M35 17.9447V17.6144L27.4967 14L20 17.6112V17.9478L27.4967 21.5591L35 17.9447Z" fill="#FE6078"/>
<path d="M22.5973 19.8577V22.0178L27.117 24.1949H27.8765L32.3837 22.0238C32.388 22.0142 32.3921 22.0048 32.3961 21.9952V19.8577L27.4967 22.2177L22.5973 19.8577Z" fill="#FE6078"/>
<path d="M34.2097 23.1621V18.9598L33.6163 19.259V23.1621L33.2297 24.34L33.8141 25.1223H34.0119L34.5963 24.34L34.2097 23.1621Z" fill="#FE6078"/>
<defs>
<linearGradient id="paint0_linear" x1="-292.782" y1="-236.836" x2="-271.127" y2="-244.895" gradientUnits="userSpaceOnUse">
<stop stop-color="#9A3D2D"/>
<stop offset="1" stop-color="#1E4450"/>
</linearGradient>
<linearGradient id="paint1_linear" x1="-292.777" y1="-236.85" x2="-271.529" y2="-249.067" gradientUnits="userSpaceOnUse">
<stop stop-color="#EE0979"/>
<stop offset="0.322" stop-color="#F32555"/>
<stop offset="1" stop-color="#FF6A00"/>
</linearGradient>
<linearGradient id="paint2_linear" x1="18.5" y1="5.50001" x2="38.5" y2="27" gradientUnits="userSpaceOnUse">
<stop stop-color="#FB8330"/>
<stop offset="1" stop-color="#FE568C"/>
</linearGradient>
</defs>
</svg>
